<svg xmlns="http://www.w3.org/2000/svg" xmlns:xlink="http://www.w3.org/1999/xlink" version="1.1" width="120" height="147" viewBox="0 0 120.5 147" class="fill">
  <path d="M102.386,119.342H88.75c-2.055,0-3.719-1.664-3.719-3.72c0-2.052,1.664-3.719,3.719-3.719h13.636c5.467,0,9.917-4.449,9.917-9.915V74.714c0-5.469-4.45-9.919-9.917-9.919H88.75c-2.055,0-3.719-1.666-3.719-3.719s1.664-3.718,3.719-3.718h13.636c9.571,0,17.357,7.786,17.357,17.356v27.274C119.743,111.557,111.957,119.342,102.386,119.342z"/>
  <path d="M46.601,63.556H4.451c-2.056,0-3.72-1.665-3.72-3.719s1.664-3.718,3.72-3.718h42.149c2.053,0,3.718,1.664,3.718,3.718S48.653,63.556,46.601,63.556z"/>
  <path d="M63.956,63.556h-7.439c-2.052,0-3.718-1.665-3.718-3.719s1.666-3.718,3.718-3.718h7.439c2.054,0,3.719,1.664,3.719,3.718S66.01,63.556,63.956,63.556z"/>
  <path d="M75.114,132.98H18.087c-9.568,0-17.355-7.787-17.355-17.357V38.761c0-13.669,11.123-24.793,24.795-24.793c10.8,0,20.009,6.941,23.402,16.598c3.039-2.618,6.992-4.202,11.31-4.202c9.151,0,16.672,7.124,17.312,16.116h8.723c3.418,0,6.197,2.782,6.197,6.198v66.944C92.47,125.193,84.683,132.98,75.114,132.98z M25.526,21.407c-9.571,0-17.357,7.785-17.357,17.354v76.861c0,5.47,4.45,9.917,9.918,9.917h57.027c5.468,0,9.917-4.447,9.917-9.917V49.92H73.873c-2.056,0-3.719-1.667-3.719-3.718v-2.48c0-5.47-4.45-9.917-9.916-9.917c-5.47,0-9.92,4.447-9.92,9.917v2.48c0,2.052-1.665,3.718-3.718,3.718c-2.054,0-3.719-1.667-3.719-3.718v-7.44C42.882,29.191,35.097,21.407,25.526,21.407z"/>
</svg>
