<svg xmlns="http://www.w3.org/2000/svg" xmlns:xlink="http://www.w3.org/1999/xlink" version="1.1" width="120" height="147" viewBox="0 0 120.5 147">
  <path class="fill stroke" stroke-width="4" stroke-miterlimit="10" d="M60.385,94.991c-9.472,0-17.318-7.027-18.25-16.347l-5.649-49.535c-0.496-5.444,1.084-10.673,4.332-14.384c3.319-3.793,8.611-6.245,13.48-6.245h11.738c5.095,0,10.008,2.277,13.481,6.245c3.589,4.103,5.204,9.495,4.325,14.439l-5.64,49.45C77.713,87.801,69.897,94.991,60.385,94.991z M54.298,11.958c-3.911,0-8.175,1.985-10.863,5.058c-2.623,2.998-3.896,7.277-3.489,11.739l5.647,49.518c0.756,7.558,7.114,13.239,14.792,13.239c7.678,0,13.98-5.766,14.349-13.128l0.009-0.111l5.668-49.671c0.714-3.927-0.599-8.258-3.511-11.585c-2.812-3.214-6.771-5.058-10.863-5.058H54.298z"/>
  <path class="fill stroke" stroke-width="4" stroke-miterlimit="10" d="M60.385,138.467c-9.19,0-16.955-7.764-16.955-16.953c0-9.191,7.765-16.955,16.955-16.955c9.19,0,16.954,7.764,16.954,16.955C77.339,130.704,69.575,138.467,60.385,138.467z M60.385,108.038c-7.305,0-13.477,6.172-13.477,13.477s6.171,13.477,13.477,13.477c7.306,0,13.477-6.172,13.477-13.477S67.69,108.038,60.385,108.038z"/>
  <path class="fill" d="M45.533,33.997c-0.392-4.314,0.873-8.492,3.471-11.46c2.655-3.034,6.89-4.995,10.789-4.995v3.478c-2.94,0-6.148,1.495-8.172,3.808c-1.974,2.256-2.931,5.484-2.624,8.855L45.533,33.997z"/>
</svg>
