<?xml version="1.0" encoding="utf-8"?>
<!-- Generator: Adobe Illustrator 16.0.0, SVG Export Plug-In . SVG Version: 6.00 Build 0)  -->
<!DOCTYPE svg PUBLIC "-//W3C//DTD SVG 1.1//EN" "http://www.w3.org/Graphics/SVG/1.1/DTD/svg11.dtd">
<svg version="1.1" id="Layer_1" xmlns="http://www.w3.org/2000/svg" xmlns:xlink="http://www.w3.org/1999/xlink" x="0px" y="0px"
	 width="67px" height="67px" viewBox="0 0 67 67" enable-background="new 0 0 67 67" xml:space="preserve">
<g>
	<defs>
		<rect id="SVGID_1_" x="-257" y="-11" width="640" height="1232"/>
	</defs>
	<clipPath id="SVGID_2_">
		<use xlink:href="#SVGID_1_"  display="none" overflow="visible"/>
	</clipPath>
	<g clip-path="url(#SVGID_2_)">
		<path fill="#353535" d="M-188.249,52.618h-5.543c-0.835,0-1.512-0.676-1.512-1.512c0-0.834,0.677-1.512,1.512-1.512h5.543
			c2.222,0,4.031-1.809,4.031-4.03V34.478c0-2.223-1.809-4.032-4.031-4.032h-5.543c-0.835,0-1.512-0.677-1.512-1.511
			c0-0.835,0.677-1.512,1.512-1.512h5.543c3.89,0,7.055,3.165,7.055,7.055v11.087C-181.194,49.454-184.359,52.618-188.249,52.618"/>
		<path fill="#353535" d="M-210.925,29.942h-17.133c-0.836,0-1.513-0.678-1.513-1.513s0.677-1.511,1.513-1.511h17.133
			c0.834,0,1.511,0.676,1.511,1.511S-210.091,29.942-210.925,29.942"/>
		<path fill="#353535" d="M-203.871,29.942h-3.024c-0.834,0-1.511-0.678-1.511-1.513s0.677-1.511,1.511-1.511h3.024
			c0.835,0,1.512,0.676,1.512,1.511S-203.036,29.942-203.871,29.942"/>
		<path fill="#353535" d="M-199.335,58.162h-23.181c-3.889,0-7.054-3.165-7.054-7.055V19.863c0-5.557,4.521-10.078,10.078-10.078
			c4.39,0,8.134,2.822,9.513,6.747c1.235-1.064,2.842-1.708,4.597-1.708c3.72,0,6.777,2.896,7.037,6.551h3.546
			c1.39,0,2.519,1.131,2.519,2.52v27.212C-192.28,54.997-195.445,58.162-199.335,58.162 M-219.492,12.81
			c-3.89,0-7.055,3.164-7.055,7.054v31.243c0,2.224,1.808,4.03,4.031,4.03h23.181c2.223,0,4.031-1.807,4.031-4.03V24.399h-4.536
			c-0.835,0-1.511-0.678-1.511-1.512V21.88c0-2.224-1.809-4.031-4.031-4.031c-2.224,0-4.032,1.808-4.032,4.031v1.008
			c0,0.834-0.677,1.512-1.512,1.512s-1.511-0.678-1.511-1.512v-3.023C-212.437,15.973-215.602,12.81-219.492,12.81"/>
		<path d="M17.509,28.499c-0.674,0-1.219-0.546-1.219-1.22c0-8.181,6.655-14.837,14.836-14.837c0.674,0,1.219,0.546,1.219,1.22
			s-0.545,1.22-1.219,1.22c-6.836,0-12.398,5.562-12.398,12.397C18.729,27.953,18.184,28.499,17.509,28.499"/>
		<path d="M32.951,61.634c-6.339,0-13.231-9.471-15.193-12.372c-3.954-5.853-8.18-14.594-8.18-21.576
			c0-12.889,10.485-23.373,23.373-23.373c12.889,0,23.373,10.484,23.373,23.373c0,6.942-4.275,15.7-8.277,21.58
			C46.071,52.167,39.147,61.634,32.951,61.634 M32.951,7.564c-11.095,0-20.121,9.025-20.121,20.121
			c0,11.734,13.543,30.696,20.121,30.696c6.406,0,20.121-19.271,20.121-30.696C53.072,16.59,44.047,7.564,32.951,7.564"/>
		<path d="M33.079,40.747c-4.355,0-7.898-3.544-7.898-7.899c0-4.354,3.543-7.897,7.898-7.897c4.355,0,7.898,3.543,7.898,7.897
			C40.978,37.203,37.435,40.747,33.079,40.747 M33.079,27.389c-3.01,0-5.459,2.449-5.459,5.459c0,3.011,2.449,5.46,5.459,5.46
			c3.011,0,5.459-2.449,5.459-5.46C38.538,29.838,36.09,27.389,33.079,27.389"/>
		<path fill="#353535" d="M-89.006,42.721c-3.85,0-7.039-2.857-7.418-6.646L-98.72,15.94c-0.202-2.213,0.44-4.339,1.761-5.847
			c1.349-1.542,3.5-2.539,5.479-2.539h4.771c2.071,0,4.068,0.926,5.48,2.539c1.459,1.668,2.116,3.858,1.758,5.869l-2.292,20.101
			C-81.962,39.798-85.139,42.721-89.006,42.721 M-91.48,8.969c-1.59,0-3.323,0.807-4.416,2.056
			c-1.066,1.219-1.583,2.958-1.418,4.772l2.296,20.128c0.307,3.071,2.891,5.382,6.012,5.382s5.683-2.344,5.833-5.337l0.004-0.045
			l2.304-20.19c0.29-1.597-0.244-3.357-1.428-4.71c-1.143-1.306-2.752-2.056-4.415-2.056H-91.48z"/>
		<path fill="#353535" d="M-89.006,43.533c-4.27,0-7.807-3.172-8.227-7.377l-2.295-20.124c-0.223-2.446,0.491-4.8,1.957-6.475
			c1.497-1.71,3.887-2.816,6.091-2.816h4.771c2.305,0,4.525,1.027,6.092,2.816c1.613,1.844,2.341,4.28,1.951,6.521l-2.287,20.053
			C-81.187,40.284-84.719,43.533-89.006,43.533 M-91.479,9.781c-1.366,0-2.859,0.698-3.804,1.778
			c-0.921,1.053-1.366,2.57-1.22,4.163l2.293,20.109c0.267,2.662,2.504,4.661,5.205,4.661c2.687,0,4.892-2.005,5.021-4.563
			l0.005-0.069l2.314-20.271c0.247-1.355-0.216-2.861-1.238-4.028c-0.989-1.13-2.375-1.779-3.805-1.779H-91.479z"/>
		<path fill="#353535" d="M-89.005,60.393c-3.736,0-6.892-3.156-6.892-6.891c0-3.736,3.156-6.893,6.892-6.893
			c3.736,0,6.892,3.156,6.892,6.893C-82.114,57.236-85.27,60.393-89.005,60.393 M-89.005,48.023c-2.969,0-5.478,2.509-5.478,5.479
			s2.508,5.478,5.478,5.478c2.97,0,5.478-2.508,5.478-5.478S-86.037,48.023-89.005,48.023"/>
		<path fill="#353535" d="M-89.005,61.206c-4.176,0-7.705-3.528-7.705-7.704c0-4.177,3.529-7.705,7.705-7.705
			c4.176,0,7.705,3.528,7.705,7.705C-81.3,57.678-84.83,61.206-89.005,61.206 M-89.005,48.837c-2.529,0-4.665,2.136-4.665,4.665
			c0,2.528,2.136,4.665,4.665,4.665c2.529,0,4.665-2.137,4.665-4.665C-84.34,50.973-86.477,48.837-89.005,48.837"/>
		<path fill="#353535" d="M-95.042,17.927c-0.159-1.754,0.355-3.452,1.411-4.658c1.079-1.233,2.801-2.03,4.385-2.03v1.414
			c-1.195,0-2.499,0.607-3.321,1.548c-0.803,0.917-1.192,2.229-1.067,3.599L-95.042,17.927z"/>
		<path fill="#353535" d="M297.756,52.947h-39.19c-2.453,0-4.448-1.996-4.448-4.449v-31.05c0-2.453,1.995-4.448,4.448-4.448h39.19
			c2.454,0,4.45,1.995,4.45,4.448v31.05C302.206,50.951,300.21,52.947,297.756,52.947 M258.565,16.658
			c-0.436,0-0.79,0.354-0.79,0.79v31.05c0,0.436,0.354,0.79,0.79,0.79h39.19c0.437,0,0.791-0.354,0.791-0.79v-31.05
			c0-0.437-0.354-0.79-0.791-0.79H258.565z"/>
		<path fill="#353535" d="M278.161,34.802c-0.405,0-0.811-0.134-1.146-0.402l-20.959-16.818c-0.788-0.632-0.914-1.783-0.282-2.571
			c0.633-0.787,1.784-0.913,2.572-0.281l19.809,15.896l20.123-16.279c0.786-0.635,1.938-0.514,2.573,0.272
			c0.635,0.785,0.514,1.938-0.271,2.572l-21.27,17.206C278.976,34.666,278.568,34.802,278.161,34.802"/>
		<path fill="#353535" d="M180.602,57.354h-39.733c-2.488,0-4.513-2.024-4.513-4.514V13.106c0-2.489,2.024-4.514,4.513-4.514h39.734
			c2.487,0,4.513,2.024,4.513,4.514l-0.001,39.733C185.114,55.329,183.09,57.354,180.602,57.354 M140.868,12.307
			c-0.44,0-0.799,0.358-0.799,0.8V52.84c0,0.441,0.358,0.799,0.799,0.799h39.733c0.44,0,0.799-0.357,0.799-0.799l0.001-39.733
			c0-0.441-0.358-0.8-0.799-0.8H140.868z"/>
		<path fill="#353535" d="M183.087,23.124h-44.714c-1.024,0-1.856-0.831-1.856-1.856c0-1.026,0.832-1.857,1.856-1.857h44.714
			c1.026,0,1.857,0.831,1.857,1.857C184.944,22.293,184.113,23.124,183.087,23.124"/>
		<path fill="#353535" d="M168.609,35.914c-0.476,0-0.95-0.182-1.313-0.544l-3.3-3.3c-0.726-0.726-0.726-1.901,0-2.626
			c0.725-0.727,1.901-0.727,2.626,0l1.987,1.986l5.459-5.459c0.726-0.725,1.9-0.725,2.626,0c0.726,0.726,0.726,1.901,0,2.626
			l-6.772,6.772C169.56,35.732,169.084,35.914,168.609,35.914"/>
		<path fill="#353535" d="M151.092,33.135h-4.589c-1.026,0-1.857-0.831-1.857-1.857s0.831-1.856,1.857-1.856h4.589
			c1.025,0,1.856,0.83,1.856,1.856S152.117,33.135,151.092,33.135"/>
		<path fill="#353535" d="M150.76,46.754h-4.59c-1.025,0-1.857-0.831-1.857-1.856c0-1.026,0.832-1.857,1.857-1.857h4.59
			c1.026,0,1.857,0.831,1.857,1.857C152.617,45.923,151.786,46.754,150.76,46.754"/>
		<path fill="#353535" d="M164.048,46.754h-4.59c-1.025,0-1.856-0.831-1.856-1.856c0-1.026,0.831-1.857,1.856-1.857h4.59
			c1.025,0,1.856,0.831,1.856,1.857C165.904,45.923,165.073,46.754,164.048,46.754"/>
		<path fill="#353535" d="M176.995,46.754h-4.589c-1.026,0-1.857-0.831-1.857-1.856c0-1.026,0.831-1.857,1.857-1.857h4.589
			c1.025,0,1.856,0.831,1.856,1.857C178.852,45.923,178.021,46.754,176.995,46.754"/>
	</g>
	<g display="none" clip-path="url(#SVGID_2_)">
		<text transform="matrix(1 0 0 1 -245.4336 27)" display="inline" font-family="'OpenSans'" font-size="23">HOME</text>
	</g>
	<g display="none" clip-path="url(#SVGID_2_)">
		<defs>
			<rect id="SVGID_3_" x="-257" y="-11" width="640" height="1232"/>
		</defs>
		<clipPath id="SVGID_4_" display="inline">
			<use xlink:href="#SVGID_3_"  overflow="visible"/>
		</clipPath>
		<path display="inline" clip-path="url(#SVGID_4_)" fill="#FCFCFC" d="M-176.421,268.751c0,3.548-2.875,6.422-6.424,6.422h-37.996
			c-3.549,0-6.422-2.874-6.422-6.422v-37.998c0-3.547,2.873-6.422,6.422-6.422h37.996c3.549,0,6.424,2.875,6.424,6.422V268.751z"/>
		
			<path display="inline" clip-path="url(#SVGID_4_)" fill="none" stroke="#353535" stroke-width="6" stroke-linecap="round" stroke-linejoin="round" stroke-miterlimit="10" d="
			M-176.421,268.751c0,3.548-2.875,6.422-6.424,6.422h-37.996c-3.549,0-6.422-2.874-6.422-6.422v-37.998
			c0-3.547,2.873-6.422,6.422-6.422h37.996c3.549,0,6.424,2.875,6.424,6.422V268.751z"/>
		<polygon display="inline" clip-path="url(#SVGID_4_)" fill="#353535" points="-190.196,239.701 -212.911,247.481 
			-203.749,250.995 -202.37,260.785 		"/>
	</g>
</g>
</svg>
